<svg xmlns="http://www.w3.org/2000/svg" width="1440" height="900" viewBox="0 0 1440 900" preserveAspectRatio="xMidYMid slice">
  <defs>
    <pattern id="stars-far-pattern" width="337" height="281" patternUnits="userSpaceOnUse">
      <circle cx="24" cy="53" r="1" fill="#ffffff"/>
      <circle cx="104" cy="202" r="0.8" fill="#fff6e7"/>
      <circle cx="195" cy="31" r="1" fill="#eaf3ff"/>
      <circle cx="276" cy="177" r="0.7" fill="#ffffff"/>
      <circle cx="319" cy="79" r="1" fill="#dceaff"/>
      <circle cx="151" cy="124" r="0.8" fill="#ffffff"/>
    </pattern>
    <pattern id="stars-middle-pattern" width="431" height="347" patternUnits="userSpaceOnUse">
      <circle cx="56" cy="163" r="1.2" fill="#ffffff"/>
      <circle cx="155" cy="49" r="0.9" fill="#ffe9c9"/>
      <circle cx="276" cy="281" r="1" fill="#e1edff"/>
      <circle cx="332" cy="115" r="0.8" fill="#ffffff"/>
      <circle cx="392" cy="239" r="1.1" fill="#fff5df"/>
      <circle cx="219" cy="196" r="0.9" fill="#ffffff"/>
    </pattern>
    <pattern id="stars-near-pattern" width="457" height="433" patternUnits="userSpaceOnUse">
      <circle cx="82" cy="364" r="1.4" fill="#ffffff"/>
      <circle cx="192" cy="165" r="1" fill="#ffe6bd"/>
      <circle cx="315" cy="74" r="1.3" fill="#d9e9ff"/>
      <circle cx="402" cy="329" r="1" fill="#ffffff"/>
      <circle cx="443" cy="191" r="1.2" fill="#fff0d7"/>
      <circle cx="263" cy="270" r="1" fill="#ffffff"/>
    </pattern>
  </defs>
  <g id="layer-far" opacity="0.42">
    <rect width="1440" height="900" fill="url(#stars-far-pattern)"/>
  </g>
  <g id="layer-middle" opacity="0.58">
    <rect width="1440" height="900" fill="url(#stars-middle-pattern)"/>
  </g>
  <g id="layer-near" opacity="0.72">
    <rect width="1440" height="900" fill="url(#stars-near-pattern)"/>
  </g>
</svg>
